<?xml version="1.0" encoding="UTF-8"?>
<svg xmlns="http://www.w3.org/2000/svg" viewBox="0 0 200 150" role="img" aria-label="AWS cloud logo">
    <title>AWS cloud logo</title>
    <path d="M63 120h83c18 0 32-14 32-31 0-17-12-30-28-31-5-24-26-41-51-41-21 0-39 12-47 30-2-1-5-1-7-1-17 0-31 13-31 29 0 18 14 32 32 32h17z"
          fill="none"
          stroke="#FF9900"
          stroke-width="8"
          stroke-linecap="round"
          stroke-linejoin="round"/>
    <text x="72" y="88"
          fill="#FFFFFF"
          font-family="Arial,'Helvetica Neue',sans-serif"
          font-size="42"
          font-weight="700">aws</text>
    <path d="M75 102c23 10 53 10 76-1"
          fill="none"
          stroke="#FF9900"
          stroke-width="8"
          stroke-linecap="round"
          stroke-linejoin="round"/>
    <path d="M133 96 150 107 137 110"
          fill="none"
          stroke="#FF9900"
          stroke-width="8"
          stroke-linecap="round"
          stroke-linejoin="round"/>
</svg>
